# AST/ASF file generated using VICON BodyLanguage
# -----------------------------------------------
:version 1.10
:name VICON
:units
  mass 1.0
  length 0.45
  angle deg
:documentation
   .ast/.asf automatically generated from VICON data using
   VICON BodyBuilder and BodyLanguage model FoxedUp or BRILLIANT.MOD
:root
   order TX TY TZ RX RY RZ
   axis XYZ
   position 0 0 0  
   orientation 0 0 0 
:bonedata
  begin
     id 1 
     name lhipjoint
     direction 0.693937 -0.600361 0.397515 
     length 2.37164 
     axis 0 0 0  XYZ
  end
  begin
     id 2 
     name lfemur
     direction 0.34202 -0.939693 0  
     length 6.18497  
     axis 0 0 20  XYZ
    dof rx ry rz
    limits (-160.0 20.0)
           (-70.0 70.0)
           (-60.0 70.0)
  end
  begin
     id 3 
     name ltibia
     direction 0.34202 -0.939693 0   
     length 6.91601   
     axis 0 0 20   XYZ
    dof rx
    limits (-10.0 170.0)
  end
  begin
     id 4 
     name lfoot
     direction 0.0978718 -0.2689 0.958182   
     length 1.81453   
     axis -90 7.62852e-016 20   XYZ
    dof rx rz
    limits (-45.0 90.0)
           (-70.0 20.0)
  end
  begin
     id 5 
     name ltoes
     direction 1.53569e-011 -4.21951e-011 1   
     length 0.912052   
     axis -90 7.62852e-016 20   XYZ
    dof rx
    limits (-90.0 20.0)
  end
  begin
     id 6 
     name rhipjoint
     direction -0.643996 -0.637876 0.422354   
     length 2.23216  
     axis 0 0 0  XYZ 
  end
  begin
     id 7 
     name rfemur
     direction -0.34202 -0.939693 0   
     length 6.15404   
     axis 0 0 -20   XYZ
    dof rx ry rz
    limits (-160.0 20.0)
           (-70.0 70.0)
           (-70.0 60.0)
  end
  begin
     id 8 
     name rtibia
     direction -0.34202 -0.939693 0   
     length 6.86744   
     axis 0 0 -20   XYZ
    dof rx
    limits (-10.0 170.0)
 end
 begin
     id 9 
     name rfoot
     direction -0.118701 -0.326127 0.937844   
     length 1.9243  
     axis -90 -7.62852e-016 -20   XYZ
    dof rx rz
    limits (-45.0 90.0)
           (-20.0 70.0)
  end
  begin
     id 10 
     name rtoes
     direction -1.5356e-011 -4.2181e-011 1   
     length 0.958865   
     axis -90 -7.62852e-016 -20   XYZ
    dof rx
    limits (-90.0 20.0)
  end
  begin
     id 11 
     name lowerback
     direction 0.0310826 0.968686 -0.246334   
     length 2.00021   
     axis 0 0 0   XYZ
    dof rx ry rz
    limits (-20.0 45.0)
           (-30.0 30.0)
           (-30.0 30.0)
  end
  begin
     id 12 
     name upperback
     direction -0.0152834 0.999474 -0.0286152   
     length 2.03728   
     axis 0 0 0   XYZ
    dof rx ry rz
    limits (-20.0 45.0)
           (-30.0 30.0)
           (-30.0 30.0)
  end
  begin
     id 13 
     name thorax
     direction -0.0323701 0.996236 0.0804149   
     length 2.16   
     axis 0 0 0   XYZ
    dof rx ry rz
    limits (-20.0 45.0)
           (-30.0 30.0)
           (-30.0 30.0)
  end
  begin
     id 14 
     name lowerneck
     direction 0.0307935 0.982251 0.185027   
     length 1.43558   
     axis 0 0 0   XYZ
    dof rx ry rz
    limits (-20.0 45.0)
           (-30.0 30.0)
           (-30.0 30.0)
  end
  begin
     id 15 
     name upperneck
     direction -0.0927153 0.994775 0.0427454   
     length 1.44603   
     axis 0 0 0   XYZ
    dof rx ry rz
    limits (-20.0 45.0)
           (-30.0 30.0)
           (-30.0 30.0)
  end
  begin
     id 16
     name head
     direction -0.0341265 0.999406 -0.00472033  
     length 1.45931  
     axis 0 0 0   XYZ
    dof rx ry rz
    limits (-20.0 45.0)
           (-30.0 30.0)
           (-30.0 30.0)
  end
  begin
     id 17 
     name lclavicle
     direction 0.820755 0.555306 -0.134151  
     length 2.66075  
     axis 0 0 0   XYZ
    dof ry rz
    limits (-20.0 10.0)
           (0.0 20.0)
  end
  begin
     id 18 
     name lhumerus
     direction 1 -4.48971e-011 5.24853e-027   
     length 5.0546   
     axis -180 -30 -90   XYZ
    dof rx ry rz
    limits (-60.0 90.0)
           (-90.0 90.0)
           (-90.0 90.0)
  end
  begin
     id 19
     name lradius
     direction 1 -4.48971e-011 2.76575e-028   
     length 3.39013   
     axis -180 -30 -90   XYZ
    dof rx
    limits (-10.0 170.0)
  end
  begin
     id 20
     name lwrist
     direction 1 -4.48939e-011 -2.27826e-027   
     length 1.69507   
     axis 2.17013e-015 90 90   XYZ
    dof ry
    limits (-180.0 0.0)
 end
  begin
     id 21 
     name lhand
     direction 1 -4.49009e-011 -4.55652e-027   
     length 0.572425   
     axis 2.90745e-015 90 90   XYZ
    dof rx rz
    limits (-90.0 90.0)
           (-45.0 45.0)
  end
  begin
     id 22 
     name lfingers
     direction 1 -4.48955e-011 -9.11303e-027   
     length 0.461504   
     axis 5.81489e-015 90 90   XYZ
    dof rx
    limits (0.0 90.0)
  end
  begin
     id 23
     name lthumb
     direction 0.707107 -6.34929e-011 0.707107   
     length 0.66263   
     axis -90 45 2.85299e-015   XYZ
    dof rx rz
    limits (-45.0 45.0)
           (-45.0 45.0)
  end
  begin
     id 24 
     name rclavicle
     direction -0.754477 0.632921 -0.173712   
     length 2.73081  
     axis 0 0 0   XYZ 
    dof ry rz
    limits (-10.0 20.0)
           (-20.0 0.0)
  end
  begin
     id 25 
     name rhumerus
     direction -1 -4.48969e-011 5.1496e-027  
     length 5.0701   
     axis -180 30 90   XYZ
    dof rx ry rz
    limits (-90.0 60.0)
           (-90.0 90.0)
           (-90.0 90.0)
  end
  begin
     id 26 
     name rradius
     direction -1 -4.48967e-011 -7.15624e-028   
     length 3.14957   
     axis -180 30 90   XYZ
    dof rx
    limits (-10.0 170.0)
  end
  begin
     id 27 
     name rwrist
     direction -1 -4.48938e-011 -2.27826e-027   
     length 1.57479   
     axis 2.17013e-015 -90 -90   XYZ
    dof ry
    limits (-180.0 0.0)
  end
  begin
     id 28
     name rhand
     direction -1 -4.49008e-011 -4.55652e-027   
     length 0.718191   
     axis 2.90745e-015 -90 -90   XYZ
    dof rx rz
    limits (-90.0 90.0)
           (-45.0 45.0)
  end
  begin
     id 29
     name rfingers
     direction -1 -4.48953e-011 -9.11303e-027   
     length 0.579024   
     axis 5.81489e-015 -90 -90   XYZ
    dof rx
    limits (0.0 90.0)
  end
  begin
     id 30
     name rthumb
     direction -0.707107 -6.34937e-011 0.707107   
     length 0.831366   
     axis -90 -45 -2.85299e-015   XYZ
    dof rx rz
    limits (-45.0 45.0)
           (-45.0 45.0)
  end
:hierarchy
  begin
    root lhipjoint rhipjoint lowerback
    lhipjoint lfemur
    lfemur ltibia
    ltibia lfoot
    lfoot ltoes
    rhipjoint rfemur
    rfemur rtibia
    rtibia rfoot
    rfoot rtoes
    lowerback upperback
    upperback thorax
    thorax lowerneck lclavicle rclavicle
    lowerneck upperneck
    upperneck head
    lclavicle lhumerus
    lhumerus lradius
    lradius lwrist
    lwrist lhand lthumb
    lhand lfingers
    rclavicle rhumerus
    rhumerus rradius
    rradius rwrist
    rwrist rhand rthumb
    rhand rfingers
  end

#!OML:ASF H:\Male1\Project 1\Capture day 1\Session 1\Male1.ASF
:FULLY-SPECIFIED
:DEGREES
103
root 30.7306 15.2587 -3.91921 -9.96833 -82.31 10.511
lowerback 7.03391 1.55503 -7.32832
upperback 4.58326 1.49254 -2.00285
thorax 0.680389 0.552165 1.93599
lowerneck -11.1805 3.41459 5.41621
upperneck 19.0665 3.73889 -1.42936
head 7.8671 1.95309 -1.00305
rclavicle -8.34896e-015 1.82882e-014
rhumerus -30.1304 4.44895 -93.8149
rradius 35.3492
rwrist -20.3177
rhand -20.2036 0.762731
rfingers 7.12502
rthumb 6.14323 -29.1282
lclavicle -8.34896e-015 1.82882e-014
lhumerus -30.3024 19.6071 74.662
lradius 22.0185
lwrist -6.2092
lhand -20.5058 19.8676
lfingers 7.12502
lthumb 5.85152 49.7668
rfemur -28.1038 3.75093 18.9535
rtibia 55.2443
rfoot -19.4225 -19.3386
rtoes -27.0188
lfemur 2.32977 -15.7743 -30.366
ltibia 20.5862
lfoot -28.5051 26.4574
ltoes -1.29896
104
root 30.6227 15.2523 -3.87562 -10.2293 -82.1601 10.9591
lowerback 7.04412 1.53077 -7.51518
upperback 4.56257 1.44712 -2.02544
thorax 0.654839 0.527045 2.01906
lowerneck -11.1005 3.44577 5.55274
upperneck 18.9811 3.74522 -1.35862
head 7.82692 1.97243 -1.00284
rclavicle -1.63003e-014 2.8625e-014
rhumerus -30.3019 4.17555 -93.6121
rradius 35.3808
rwrist -20.3788
rhand -20.3302 0.468174
rfingers 7.12502
rthumb 6.02102 -29.4263
lclavicle -1.63003e-014 2.8625e-014
lhumerus -29.6134 16.8254 76.3278
lradius 23.1548
lwrist -4.43022
lhand -20.7242 20.3378
lfingers 7.12502
lthumb 5.64059 50.2427
rfemur -29.3666 4.10284 19.2924
rtibia 54.9539
rfoot -19.0623 -18.7029
rtoes -28.4425
lfemur 3.05467 -15.5144 -30.59
ltibia 19.704
lfoot -28.2823 26.3456
ltoes -1.94935
105
root 30.5089 15.2434 -3.83057 -10.8326 -82.0384 11.742
lowerback 7.08042 1.51854 -7.68383
upperback 4.53722 1.41483 -2.07624
thorax 0.609951 0.509693 2.06135
lowerneck -11.0082 3.4588 5.66114
upperneck 18.8864 3.72907 -1.26759
head 7.77969 1.98077 -0.993915
rclavicle 2.04748e-014 2.54444e-014
rhumerus -30.4679 3.91704 -93.4175
rradius 35.3106
rwrist -20.4108
rhand -20.2579 0.148002
rfingers 7.12502
rthumb 6.09087 -29.7444
lclavicle 2.04748e-014 2.54444e-014
lhumerus -29.0099 14.0628 77.8873
lradius 24.4254
lwrist -2.62095
lhand -21.0062 20.5393
lfingers 7.12502
lthumb 5.36839 50.4513
rfemur -30.5536 4.61774 19.521
rtibia 54.4001
rfoot -18.7761 -18.3234
rtoes -29.6128
lfemur 3.88547 -15.213 -30.8619
ltibia 18.6836
lfoot -28.0377 26.2353
ltoes -2.56439
106
root 30.3888 15.2322 -3.78349 -11.8257 -81.9249 12.8991
lowerback 7.14212 1.50598 -7.82483
upperback 4.50989 1.37967 -2.16221
thorax 0.550492 0.492113 2.05156
lowerneck -10.8999 3.46363 5.73534
upperneck 18.7916 3.70576 -1.1588
head 7.72825 1.98467 -0.974577
rclavicle -3.57812e-014 2.94201e-014
rhumerus -30.6303 3.64999 -93.232
rradius 35.1489
rwrist -20.3412
rhand -19.9644 -0.181509
rfingers 7.12502
rthumb 6.37415 -30.0656
lclavicle -3.57812e-014 2.94201e-014
lhumerus -28.4802 11.4199 79.2986
lradius 25.7617
lwrist -0.861512
lhand -21.2632 20.1766
lfingers 7.12502
lthumb 5.12026 50.0947
rfemur -31.655 5.23989 19.6141
rtibia 53.6279
rfoot -18.5683 -18.151
rtoes -30.5928
lfemur 4.86023 -14.8772 -31.1972
ltibia 17.4727
lfoot -27.7321 26.1259
ltoes -3.12927
107
root 30.2621 15.2188 -3.73379 -13.25 -81.7969 14.4666
lowerback 7.18693 1.50074 -7.96408
upperback 4.51363 1.35611 -2.26805
thorax 0.532252 0.477882 2.01992
lowerneck -10.7712 3.45316 5.79722
upperneck 18.6622 3.67333 -1.08444
head 7.66169 1.98004 -0.96593
rclavicle 1.78906e-015 -4.21423e-014
rhumerus -30.7354 3.31189 -92.9964
rradius 34.8889
rwrist -20.1602
rhand -19.4338 -0.476228
rfingers 7.12502
rthumb 6.88644 -30.3442
lclavicle 1.78906e-015 -4.21423e-014
lhumerus -27.9531 8.93155 80.5978
lradius 27.0969
lwrist 0.78285
lhand -21.404 19.3468
lfingers 7.12502
lthumb 4.98427 49.2681
rfemur -32.6653 5.89933 19.5535
rtibia 52.68
rfoot -18.4377 -18.1175
rtoes -31.3479
lfemur 6.0148 -14.5049 -31.6106
ltibia 16.0172
lfoot -27.3112 26.0101
ltoes -3.65098
108
root 30.1288 15.2036 -3.68093 -14.9679 -81.6376 16.2997
lowerback 7.23129 1.49903 -8.08163
upperback 4.54702 1.33886 -2.38838
thorax 0.545266 0.465052 1.96094
lowerneck -10.6479 3.43143 5.85429
upperneck 18.531 3.63538 -1.05268
head 7.59594 1.96846 -0.970959
rclavicle 2.22639e-014 -1.27222e-014
rhumerus -30.7845 2.88307 -92.7037
rradius 34.5486
rwrist -19.8603
rhand -18.7861 -0.816118
rfingers 7.12502
rthumb 7.51157 -30.6627
lclavicle 2.22639e-014 -1.27222e-014
lhumerus -27.4146 6.61051 81.7877
lradius 28.3823
lwrist 2.24374
lhand -21.4401 18.1202
lfingers 7.12502
lthumb 4.94938 48.0424
rfemur -33.5759 6.53223 19.3579
rtibia 51.5917
rfoot -18.3849 -18.1641
rtoes -31.7466
lfemur 7.39026 -14.0948 -32.0896
ltibia 14.2549
lfoot -26.7125 25.8812
ltoes -4.14565
109
root 29.9887 15.1871 -3.62508 -16.7081 -81.4447 18.1285
lowerback 7.27231 1.50039 -8.16213
upperback 4.60968 1.32939 -2.50204
thorax 0.590364 0.454652 1.888
lowerneck -10.5558 3.40197 5.91571
upperneck 18.4215 3.59563 -1.07683
head 7.54386 1.95133 -0.994607
rclavicle 2.36554e-014 1.43125e-014
rhumerus -30.7839 2.37751 -92.3462
rradius 34.1596
rwrist -19.4829
rhand -18.1214 -1.26774
rfingers 7.12502
rthumb 8.15319 -31.0904
lclavicle 2.36554e-014 1.43125e-014
lhumerus -26.8488 4.47292 82.887
lradius 29.5759
lwrist 3.45634
lhand -21.3911 17.0689
lfingers 7.12502
lthumb 4.99667 46.99
rfemur -34.3858 7.10029 19.0795
rtibia 50.3891
rfoot -18.3966 -18.2896
rtoes -31.7513
lfemur 9.02889 -13.6585 -32.5955
ltibia 12.1011
lfoot -25.8732 25.7337
ltoes -4.59692
110
root 29.8419 15.1693 -3.5668 -18.2736 -81.2242 19.7528
lowerback 7.33452 1.51576 -8.171
upperback 4.68877 1.34115 -2.61384
thorax 0.639848 0.455583 1.77549
lowerneck -10.4992 3.35377 6.02682
upperneck 18.3422 3.53123 -1.16405
head 7.50922 1.92033 -1.0488
rclavicle 1.74931e-014 8.74653e-015
rhumerus -30.7627 1.78033 -91.951
rradius 33.7317
rwrist -19.0787
rhand -17.5194 -1.82675
rfingers 7.12502
rthumb 8.73417 -31.626
lclavicle 1.74931e-014 8.74653e-015
lhumerus -26.2666 2.45142 83.8979
lradius 30.6697
lwrist 4.42128
lhand -21.3233 16.2807
lfingers 7.12502
lthumb 5.06221 46.2002
rfemur -35.0902 7.58483 18.7662
rtibia 49.0898
rfoot -18.4725 -18.435
rtoes -31.2839
lfemur 11.0134 -12.9589 -33.0477
ltibia 9.38396
lfoot -24.6925 25.3119
ltoes -4.97823
111
root 29.6888 15.1504 -3.50695 -19.4549 -80.9863 20.9636
lowerback 7.43115 1.5374 -8.10462
upperback 4.77789 1.36316 -2.70005
thorax 0.68034 0.463207 1.64655
lowerneck -10.4765 3.29053 6.16339
upperneck 18.2913 3.44799 -1.29537
head 7.49032 1.8783 -1.12283
rclavicle -1.90833e-014 3.49861e-014
rhumerus -30.7413 1.16555 -91.5299
rradius 33.2618
rwrist -18.6806
rhand -17.0776 -2.45315
rfingers 7.12502
rthumb 9.16047 -32.2342
lclavicle -1.90833e-014 3.49861e-014
lhumerus -25.682 0.571697 84.8385
lradius 31.6639
lwrist 5.14426
lhand -21.291 15.8347
lfingers 7.12502
lthumb 5.09342 45.7535
rfemur -35.6886 7.98546 18.4661
rtibia 47.7041
rfoot -18.6045 -18.686
rtoes -30.5993
lfemur 13.6854 -12.273 -33.4327
ltibia 5.46597
lfoot -22.8934 24.8654
ltoes -5.25827
112
root 29.5297 15.1305 -3.44646 -20.0866 -80.7438 21.5941
lowerback 7.56033 1.56267 -7.94961
upperback 4.8793 1.39364 -2.74785
thorax 0.715427 0.476855 1.5072
lowerneck -10.4682 3.21977 6.34129
upperneck 18.2379 3.35447 -1.46821
head 7.47396 1.83053 -1.21798
rclavicle -2.94201e-014 5.32743e-014
rhumerus -30.734 0.572393 -91.1006
rradius 32.7645
rwrist -18.3341
rhand -16.8258 -2.78401
rfingers 7.12502
rthumb 9.40342 -32.5542
lclavicle -2.94201e-014 5.32743e-014
lhumerus -25.0937 -1.17552 85.7208
lradius 32.5567
lwrist 5.6577
lhand -21.3345 15.5944
lfingers 7.12502
lthumb 5.0514 45.5142
rfemur -36.1735 8.32788 18.2177
rtibia 46.2427
rfoot -18.7877 -19.0396
rtoes -29.8161
lfemur 17.2244 -11.6038 -33.6935
ltibia 0
lfoot -20.3337 24.3519
ltoes -5.37979
